<svg width="24" height="25" viewBox="0 0 24 25" fill="none" xmlns="http://www.w3.org/2000/svg">
<g id="External Link">
<path id="Vector" style="fill:#666666" d="M18 10.8284C17.7348 10.8284 17.4804 10.9337 17.2929 11.1213C17.1054 11.3088 17 11.5631 17 11.8284V19.0084C17 19.2736 16.8946 19.5279 16.7071 19.7155C16.5196 19.903 16.2652 20.0084 16 20.0084H5C4.73478 20.0084 4.48043 19.903 4.29289 19.7155C4.10536 19.5279 4 19.2736 4 19.0084V8.00836C4 7.74315 4.10536 7.48879 4.29289 7.30126C4.48043 7.11372 4.73478 7.00836 5 7.00836H12.18C12.4452 7.00836 12.6996 6.903 12.8871 6.71547C13.0746 6.52793 13.18 6.27358 13.18 6.00836C13.18 5.74315 13.0746 5.48879 12.8871 5.30126C12.6996 5.11372 12.4452 5.00836 12.18 5.00836H5C4.20435 5.00836 3.44129 5.32443 2.87868 5.88704C2.31607 6.44965 2 7.21271 2 8.00836V19.0084C2 19.804 2.31607 20.5671 2.87868 21.1297C3.44129 21.6923 4.20435 22.0084 5 22.0084H16C16.7956 22.0084 17.5587 21.6923 18.1213 21.1297C18.6839 20.5671 19 19.804 19 19.0084V11.8284C19 11.5631 18.8946 11.3088 18.7071 11.1213C18.5196 10.9337 18.2652 10.8284 18 10.8284ZM21.92 2.62836C21.8185 2.38401 21.6243 2.18984 21.38 2.08836C21.2598 2.03712 21.1307 2.00994 21 2.00836H15C14.7348 2.00836 14.4804 2.11372 14.2929 2.30125C14.1054 2.48879 14 2.74315 14 3.00836C14 3.27358 14.1054 3.52793 14.2929 3.71547C14.4804 3.90301 14.7348 4.00836 15 4.00836H18.59L8.29 14.2984C8.19627 14.3913 8.12188 14.5019 8.07111 14.6238C8.02034 14.7456 7.9942 14.8763 7.9942 15.0084C7.9942 15.1404 8.02034 15.2711 8.07111 15.3929C8.12188 15.5148 8.19627 15.6254 8.29 15.7184C8.38296 15.8121 8.49356 15.8865 8.61542 15.9373C8.73728 15.988 8.86799 16.0142 9 16.0142C9.13201 16.0142 9.26272 15.988 9.38458 15.9373C9.50644 15.8865 9.61704 15.8121 9.71 15.7184L20 5.41836V9.00836C20 9.27358 20.1054 9.52793 20.2929 9.71547C20.4804 9.903 20.7348 10.0084 21 10.0084C21.2652 10.0084 21.5196 9.903 21.7071 9.71547C21.8946 9.52793 22 9.27358 22 9.00836V3.00836C21.9984 2.87768 21.9712 2.74858 21.92 2.62836V2.62836Z" fill="black"/>
</g>
</svg>
