<svg width="24" height="25" viewBox="0 0 24 25" fill="none" xmlns="http://www.w3.org/2000/svg">
<g id="notification-padplus">
<path id="bell" d="M20.8714 16.6255C20.055 15.7232 18.4652 14.3912 18.4652 9.96539C18.4652 6.6568 16.1449 3.99274 12.9652 3.30524V2.40289C12.9652 1.67242 12.3636 1.02789 11.6331 1.02789C10.8597 1.02789 10.2581 1.67242 10.2581 2.40289V3.30524C7.07846 3.99274 4.75814 6.6568 4.75814 9.96539C4.75814 14.3912 3.1683 15.7232 2.35189 16.6255C2.09408 16.8834 1.96517 17.2271 2.00814 17.5279C2.00814 18.2584 2.52377 18.9029 3.38314 18.9029H19.8402C20.6996 18.9029 21.2152 18.2584 21.2581 17.5279C21.2581 17.2271 21.1292 16.8834 20.8714 16.6255ZM4.88705 16.8404C5.78939 15.6802 6.77767 13.6607 6.82064 10.0084C6.82064 10.0084 6.82064 10.0084 6.82064 9.96539C6.82064 7.3443 8.96908 5.15289 11.6331 5.15289C14.2542 5.15289 16.4456 7.3443 16.4456 9.96539C16.4456 10.0084 16.4027 10.0084 16.4027 10.0084C16.4456 13.6607 17.4339 15.6802 18.3363 16.8404H4.88705ZM11.6331 23.0279C13.137 23.0279 14.3402 21.8248 14.3402 20.2779H8.88314C8.88314 21.8248 10.0863 23.0279 11.6331 23.0279Z" fill="#222222"/>
</g>
</svg>
