<svg width="24" height="23" viewBox="0 0 24 23" fill="none" xmlns="http://www.w3.org/2000/svg">
<g id="arrow bottom">
<path id="Vector" d="M12.42 14.7449L18.07 9.08494C18.1637 8.99198 18.2381 8.88137 18.2889 8.75951C18.3396 8.63766 18.3658 8.50695 18.3658 8.37494C18.3658 8.24293 18.3396 8.11222 18.2889 7.99036C18.2381 7.8685 18.1637 7.7579 18.07 7.66494C17.8826 7.47869 17.6292 7.37415 17.365 7.37415C17.1008 7.37415 16.8473 7.47869 16.66 7.66494L11.66 12.6149L6.70999 7.66494C6.52262 7.47869 6.26917 7.37415 6.00499 7.37415C5.7408 7.37415 5.48735 7.47869 5.29999 7.66494C5.2055 7.75755 5.13033 7.868 5.07883 7.98987C5.02734 8.11175 5.00054 8.24263 4.99999 8.37494C5.00054 8.50725 5.02734 8.63813 5.07883 8.76C5.13033 8.88188 5.2055 8.99232 5.29999 9.08494L10.95 14.7449C11.0436 14.8464 11.1573 14.9275 11.2838 14.9829C11.4103 15.0383 11.5469 15.0669 11.685 15.0669C11.8231 15.0669 11.9597 15.0383 12.0862 14.9829C12.2127 14.9275 12.3263 14.8464 12.42 14.7449Z" fill="#222222"/>
</g>
</svg>
