<svg width="25" height="24" viewBox="0 0 25 24" fill="none" xmlns="http://www.w3.org/2000/svg">
<g id="Chat">
<path id="Vector" d="M12.0282 2C10.715 2 9.41461 2.25866 8.20135 2.7612C6.9881 3.26375 5.8857 4.00035 4.95712 4.92893C3.08175 6.8043 2.02819 9.34784 2.02819 12C2.01944 14.3091 2.81898 16.5485 4.28819 18.33L2.28819 20.33C2.14943 20.4706 2.05543 20.6492 2.01806 20.8432C1.98068 21.0372 2.00161 21.2379 2.07819 21.42C2.16124 21.5999 2.29589 21.7511 2.46503 21.8544C2.63418 21.9577 2.83019 22.0083 3.02819 22H12.0282C14.6804 22 17.2239 20.9464 19.0993 19.0711C20.9746 17.1957 22.0282 14.6522 22.0282 12C22.0282 9.34784 20.9746 6.8043 19.0993 4.92893C17.2239 3.05357 14.6804 2 12.0282 2V2ZM12.0282 20H5.43819L6.36819 19.07C6.55444 18.8826 6.65898 18.6292 6.65898 18.365C6.65898 18.1008 6.55444 17.8474 6.36819 17.66C5.05877 16.352 4.24336 14.6305 4.06088 12.7888C3.87839 10.947 4.34013 9.09901 5.36741 7.55952C6.3947 6.02004 7.92398 4.88436 9.6947 4.34597C11.4654 3.80759 13.368 3.8998 15.0784 4.60691C16.7888 5.31402 18.201 6.59227 19.0746 8.22389C19.9482 9.85551 20.2291 11.7395 19.8693 13.555C19.5096 15.3705 18.5315 17.005 17.1017 18.1802C15.672 19.3554 13.8789 19.9985 12.0282 20V20Z" fill="black"/>
</g>
</svg>
