<svg width="24" height="25" viewBox="0 0 24 25" fill="none" xmlns="http://www.w3.org/2000/svg">
<g id="Search">
<path id="Vector" d="M21.7192 20.3226L18.0114 16.6426C19.4506 14.847 20.1476 12.5679 19.959 10.2739C19.7705 7.97986 18.7106 5.84534 16.9975 4.3092C15.2844 2.77306 13.0481 1.95207 10.7486 2.01503C8.44911 2.07799 6.26109 3.02012 4.63448 4.6477C3.00786 6.27528 2.06629 8.4646 2.00337 10.7655C1.94045 13.0664 2.76095 15.3039 4.29618 17.0181C5.83141 18.7322 7.96466 19.7927 10.2573 19.9814C12.5499 20.1701 14.8277 19.4727 16.6222 18.0326L20.3 21.7126C20.3929 21.8063 20.5035 21.8807 20.6253 21.9314C20.747 21.9822 20.8777 22.0084 21.0096 22.0084C21.1415 22.0084 21.2722 21.9822 21.3939 21.9314C21.5157 21.8807 21.6263 21.8063 21.7192 21.7126C21.8993 21.5261 22 21.2769 22 21.0176C22 20.7582 21.8993 20.509 21.7192 20.3226V20.3226ZM11.0155 18.0326C9.63189 18.0326 8.27932 17.622 7.12886 16.8528C5.9784 16.0837 5.08172 14.9904 4.55223 13.7113C4.02273 12.4323 3.88419 11.0248 4.15412 9.66693C4.42406 8.30906 5.09035 7.06178 6.06873 6.08281C7.04712 5.10384 8.29366 4.43716 9.65072 4.16706C11.0078 3.89696 12.4144 4.03559 13.6927 4.5654C14.9711 5.09521 16.0637 5.99242 16.8324 7.14357C17.6011 8.29471 18.0114 9.64809 18.0114 11.0326C18.0114 12.8891 17.2743 14.6696 15.9623 15.9823C14.6504 17.2951 12.871 18.0326 11.0155 18.0326V18.0326Z" fill="black"/>
</g>
</svg>
